<?xml version="1.0" encoding="utf-8"?>
<!-- Generator: Adobe Illustrator 27.2.0, SVG Export Plug-In . SVG Version: 6.00 Build 0)  -->
<svg version="1.1" id="Layer_1" xmlns="http://www.w3.org/2000/svg" xmlns:xlink="http://www.w3.org/1999/xlink" x="0px" y="0px"
	 viewBox="0 0 311.8 113.4" style="enable-background:new 0 0 311.8 113.4;" xml:space="preserve">
<style type="text/css">
	.st0{fill:#00468E;}
</style>
<path class="st0" d="M72.5,43l1.5-7.4c0.1-0.7-0.3-1.3-1-1.3H45.2c-2.2,0-4,1.6-4.5,3.9l-7,35.1c-0.6,3,1.6,5.9,4.5,5.9h26.2
	c0.5,0,0.9-0.4,1-0.9l1.5-7.4c0.1-0.7-0.3-1.3-1-1.3H44.2l1.8-8.4h18c0.5,0,0.9-0.4,1-0.9l1.5-7.6c0.1-0.7-0.4-1.3-1-1.3H47.8
	l1.5-7.4h22.1C71.9,43.9,72.4,43.5,72.5,43"/>
<path class="st0" d="M276.7,43l1.5-7.4c0.1-0.7-0.3-1.3-1-1.3h-27.7c-2.2,0-4,1.6-4.5,3.9l-7,35.1c-0.6,3,1.6,5.9,4.5,5.9h26.2
	c0.5,0,0.9-0.4,1-0.9l1.5-7.4c0.1-0.7-0.3-1.3-1-1.3h-21.7l1.8-8.4h18c0.5,0,0.9-0.4,1-0.9l1.5-7.6c0.1-0.7-0.4-1.3-1-1.3H252
	l1.5-7.4h22.1C276.2,43.9,276.6,43.5,276.7,43"/>
<path class="st0" d="M74.7,61.1H81c1.8,0,3.3-1.3,3.6-3.2l1-5.3c0.1-0.7-0.4-1.3-1-1.3h-6.3c-1.8,0-3.3,1.3-3.6,3.2l-1,5.3
	C73.6,60.5,74.1,61.1,74.7,61.1"/>
<path class="st0" d="M100.4,35.3c-1.4,0.7-2.6,1.7-3.5,3c-0.9,1.3-1.6,2.9-2,4.9l-1.6,8.1c-0.4,2.2-0.3,3.9,0.4,5.2
	c0.7,1.3,1.9,2.2,3.7,2.8c0.4,0.1,0.7,0.2,1,0.3l16.4,3.6h0.1c0.4,0.1,0.6,0.4,0.7,0.8c0.1,0.4,0.1,0.8,0,1.3l-0.3,1.4
	c-0.2,0.9-0.5,1.6-1.1,2.2c-0.5,0.5-1.2,0.8-2,0.8H91.7c-0.5,0-0.9,0.4-1,0.9l-1.4,7.4c-0.1,0.7,0.3,1.3,1,1.3h23.3
	c1.8,0,3.4-0.3,4.8-1c1.4-0.7,2.6-1.7,3.6-3c1-1.3,1.6-2.9,2-4.7l1.6-8.1c0.4-2.3,0.3-4.1-0.5-5.5c-0.8-1.4-2.1-2.3-3.9-2.8H121
	l-16.6-3.6h-0.1c-0.4-0.1-0.7-0.3-0.9-0.7c-0.2-0.4-0.2-0.8-0.1-1.3l0.3-1.9c0.2-0.8,0.6-1.5,1.1-2c0.5-0.5,1.2-0.8,2-0.8h19.8
	c0.5,0,0.9-0.4,1-0.9l1.4-7.4c0.1-0.7-0.3-1.3-1-1.3h-22.5C103.5,34.3,101.8,34.6,100.4,35.3"/>
<path class="st0" d="M166.3,34.3h-31.9c-0.5,0-0.9,0.4-1,0.9l-1.5,7.4c-0.1,0.7,0.3,1.3,1,1.3h10.5l-6.8,33.9
	c-0.1,0.7,0.3,1.3,1,1.3h7.5c0.5,0,0.9-0.4,1-0.9l6.9-34.4h12.6l1.6-8.3C167.4,34.9,166.9,34.3,166.3,34.3"/>
<path class="st0" d="M175.1,61.9l7.4-14l1.8,14H175.1z M179.4,34.8l-23,42.6c-0.4,0.7,0.1,1.6,0.9,1.6h8.1c0.4,0,0.7-0.2,0.9-0.5
	l3.8-7.1h15.5l0.9,6.7c0.1,0.5,0.5,0.9,1,0.9h8.1c0.6,0,1.1-0.6,1-1.2l-6-42.6c-0.1-0.5-0.5-0.9-1-0.9h-9.2
	C180,34.3,179.6,34.5,179.4,34.8"/>
<path class="st0" d="M230.8,34.8l-16.2,30.6l-3.9-30.2c-0.1-0.5-0.5-0.9-1-0.9h-7.8c-0.6,0-1.1,0.6-1,1.2l6,42.6
	c0.1,0.5,0.5,0.9,1,0.9h9.8c0.4,0,0.7-0.2,0.9-0.5l23-42.6c0.4-0.7-0.1-1.6-0.9-1.6h-8.9C231.3,34.3,231,34.5,230.8,34.8"/>
</svg>
